<svg width="33" height="33" viewBox="0 0 33 33" fill="none" xmlns="http://www.w3.org/2000/svg">
<path fill-rule="evenodd" clip-rule="evenodd" d="M25.6924 26.2585C28.2867 23.8138 29.9062 20.346 29.9062 16.5C29.9062 9.09593 23.9041 3.09375 16.5 3.09375C9.09593 3.09375 3.09375 9.09593 3.09375 16.5C3.09375 20.346 4.7133 23.8138 7.30761 26.2585C9.70766 28.5202 12.942 29.9062 16.5 29.9062C20.058 29.9062 23.2923 28.5202 25.6924 26.2585ZM8.44954 24.4919C10.3395 22.1345 13.2435 20.625 16.5 20.625C19.7565 20.625 22.6605 22.1345 24.5505 24.4919C22.4954 26.562 19.6474 27.8438 16.5 27.8438C13.3526 27.8438 10.5046 26.562 8.44954 24.4919ZM21.6562 12.375C21.6562 15.2227 19.3477 17.5312 16.5 17.5312C13.6523 17.5312 11.3438 15.2227 11.3438 12.375C11.3438 9.52728 13.6523 7.21875 16.5 7.21875C19.3477 7.21875 21.6562 9.52728 21.6562 12.375Z" fill="#FFFAFA"/>
</svg>
