<svg width="39" height="39" viewBox="0 0 39 39" fill="none" xmlns="http://www.w3.org/2000/svg">
<rect width="39" height="39" fill="#DF36A7"/>
<path d="M21.9 22.62V20.7547C21.9 20.4206 22.0725 20.1148 22.3246 19.8956C23.2364 19.1033 23.82 17.9172 23.82 16.62C23.82 16.38 23.82 13.98 23.82 13.74C23.82 11.34 21.9 9.42001 19.5 9.42001C17.1 9.42001 15.18 11.34 15.18 13.74C15.18 13.98 15.18 16.38 15.18 16.62C15.18 17.9172 15.7636 19.1033 16.6754 19.8956C16.9275 20.1148 17.1 20.4206 17.1 20.7547V22.62C17.1 24.1737 11.3522 24.3322 10.4882 28.1057C10.3649 28.644 10.8277 29.1 11.38 29.1H27.62C28.1723 29.1 28.635 28.6441 28.5137 28.1053C27.6562 24.2974 21.9 24.22 21.9 22.62Z" stroke="#CCCCCC" stroke-width="2" stroke-miterlimit="10" stroke-linecap="round"/>
</svg>
