<svg width="7" height="7" viewBox="0 0 7 7" fill="none" xmlns="http://www.w3.org/2000/svg">
<path d="M6.30635 0.728897C6.40287 0.540352 6.38722 0.260133 6.2714 0.103012C6.15558 -0.0541094 5.98345 -0.028635 5.88693 0.159911L3.92484 3.99284C3.53071 4.76276 3.25346 5.30271 3.01298 5.65622C2.77811 6.00148 2.61601 6.11121 2.45686 6.11121C2.29771 6.11121 2.13561 6.00148 1.90074 5.65622C1.66026 5.30271 1.38301 4.76276 0.988877 3.99283L0.482702 3.00403C0.386185 2.81548 0.214051 2.79001 0.0982306 2.94713C-0.01759 3.10425 -0.0332386 3.38447 0.0632786 3.57301L0.583501 4.58926C0.960317 5.32539 1.26209 5.91491 1.53484 6.31586C1.81658 6.73002 2.10458 7 2.45686 7C2.80914 7 3.09714 6.73002 3.37888 6.31586C3.65163 5.91492 3.9534 5.3254 4.33021 4.58929L6.30635 0.728897Z" fill="white"/>
</svg>
